<?xml version="1.0" standalone="no"?>
<!DOCTYPE svg PUBLIC "-//W3C//DTD SVG 20010904//EN"
 "http://www.w3.org/TR/2001/REC-SVG-20010904/DTD/svg10.dtd">
<svg version="1.0" xmlns="http://www.w3.org/2000/svg"
 width="887.000000pt" height="885.000000pt" viewBox="0 0 887.000000 885.000000"
 preserveAspectRatio="xMidYMid meet">

<g transform="translate(0.000000,885.000000) scale(0.100000,-0.100000)"
fill="#000000" stroke="none">
<path d="M4190 8504 c-488 -43 -848 -122 -1225 -271 -949 -373 -1724 -1086
-2172 -1998 -652 -1328 -523 -2922 334 -4132 643 -908 1664 -1525 2770 -1672
885 -118 1796 60 2562 501 742 428 1340 1086 1681 1850 258 580 373 1156 357
1793 -9 329 -41 568 -117 868 -314 1238 -1195 2259 -2379 2757 -338 142 -758
249 -1141 290 -106 11 -586 21 -670 14z m470 -64 c986 -55 1872 -441 2579
-1125 667 -646 1082 -1487 1196 -2425 22 -180 30 -577 16 -760 -79 -1003 -498
-1896 -1217 -2590 -442 -426 -966 -741 -1548 -929 -253 -82 -475 -130 -771
-168 -216 -28 -740 -25 -965 5 -567 75 -1065 245 -1545 529 -439 260 -864 642
-1172 1056 -662 890 -926 2027 -727 3132 165 918 659 1756 1394 2366 650 540
1472 862 2320 909 200 11 248 11 440 0z"/>
<path d="M4461 8195 c0 -5 8 -26 19 -45 11 -19 19 -30 19 -25 0 6 -8 26 -19
45 -11 19 -19 31 -19 25z"/>
<path d="M4511 8085 c0 -5 6 -21 14 -35 8 -14 14 -20 14 -15 0 6 -6 21 -14 35
-8 14 -14 21 -14 15z"/>
<path d="M5628 8033 c-27 -31 -120 -225 -111 -233 4 -4 36 51 70 121 34 71 61
129 59 129 -1 0 -10 -8 -18 -17z"/>
<path d="M4753 7921 c-32 -26 -77 -66 -101 -87 l-42 -39 26 -123 c14 -68 24
-126 21 -129 -3 -3 -51 22 -107 56 -55 34 -108 61 -116 61 -23 0 -197 -106
-225 -137 -13 -14 -19 -24 -14 -21 6 3 62 37 126 76 l116 69 84 -49 c46 -28
102 -61 125 -74 l41 -24 -30 142 -30 142 34 30 c19 17 66 59 104 93 82 73 72
85 -12 14z"/>
<path d="M4125 7894 c77 -72 130 -113 124 -97 -5 13 -177 163 -187 163 -4 -1
25 -30 63 -66z"/>
<path d="M3889 7940 c-23 -13 -141 -196 -137 -212 1 -7 38 40 80 104 43 65 77
118 75 118 -1 0 -9 -5 -18 -10z"/>
<path d="M4929 7763 c7 -3 67 -27 133 -54 66 -26 118 -43 116 -37 -5 15 -207
97 -238 97 -14 0 -19 -3 -11 -6z"/>
<path d="M3269 7684 c63 -30 116 -52 119 -50 7 7 -195 106 -215 105 -10 0 33
-25 96 -55z"/>
<path d="M2993 7658 c-17 -21 -82 -227 -74 -233 8 -4 94 235 87 242 -2 2 -8
-2 -13 -9z"/>
<path d="M5302 7519 c-45 -56 -82 -108 -82 -118 1 -14 2 -14 13 0 101 130 164
199 181 199 12 0 66 -7 121 -15 116 -17 153 -19 140 -6 -10 8 -227 41 -271 41
-14 0 -46 -31 -102 -101z"/>
<path d="M6472 7563 c-29 -32 -69 -77 -88 -99 l-35 -42 41 -117 c22 -65 40
-121 40 -125 0 -5 -51 14 -114 41 -63 27 -120 49 -126 49 -20 0 -208 -138
-221 -162 -9 -17 -2 -15 37 14 149 108 179 128 187 128 5 0 63 -23 129 -51 66
-27 123 -48 125 -45 3 3 -14 61 -37 130 -49 145 -57 118 69 255 40 45 67 81
60 81 -7 0 -37 -26 -67 -57z"/>
<path d="M3501 7455 c-50 -52 -91 -100 -91 -107 0 -7 46 33 103 89 l102 101
135 -39 c74 -21 136 -38 138 -39 1 0 -2 9 -8 20 -6 11 -15 18 -20 15 -6 -4
-59 8 -118 24 -59 17 -117 31 -128 31 -13 0 -55 -35 -113 -95z"/>
<path d="M5790 7526 c0 -8 191 -148 196 -143 3 3 -36 37 -86 76 -81 62 -110
80 -110 67z"/>
<path d="M2357 7293 c-3 -5 53 -20 124 -35 83 -16 126 -21 117 -13 -7 7 -53
20 -103 29 -49 10 -100 20 -111 23 -12 2 -24 1 -27 -4z"/>
<path d="M6961 7287 c-1 -25 53 -235 56 -217 1 8 -10 65 -26 125 -16 61 -30
102 -30 92z"/>
<path d="M2824 7222 c-19 -12 -136 -230 -132 -246 1 -9 34 40 71 109 l69 125
141 1 c89 0 134 4 122 9 -25 11 -256 13 -271 2z"/>
<path d="M2217 7183 c-11 -38 -19 -233 -9 -233 5 0 12 55 16 121 6 116 4 152
-7 112z"/>
<path d="M6557 7046 c93 -122 119 -155 126 -156 4 0 -24 41 -64 90 -39 50 -73
90 -76 90 -2 0 4 -11 14 -24z"/>
<path d="M7161 6899 l-112 -72 6 -106 c3 -58 8 -116 11 -128 2 -13 1 -23 -3
-23 -5 0 -51 34 -103 75 -52 41 -102 75 -111 75 -19 0 -219 -77 -236 -92 -29
-23 -1 -17 112 27 64 25 122 45 127 45 6 0 59 -38 119 -85 59 -47 110 -85 114
-85 3 0 4 8 1 18 -2 9 -7 73 -11 142 l-6 125 115 74 c64 41 116 76 116 78 0
13 -42 -7 -139 -68z"/>
<path d="M2286 6760 c-59 -16 -112 -32 -117 -37 -5 -5 -23 -64 -40 -131 -18
-67 -36 -119 -41 -115 -8 4 6 -32 17 -45 1 -2 17 57 35 130 18 73 38 138 44
144 6 6 71 26 144 44 72 18 132 34 132 36 0 11 -76 -1 -174 -26z"/>
<path d="M1748 6681 c-107 -12 -71 -21 70 -19 89 2 141 7 139 13 -4 12 -126
15 -209 6z"/>
<path d="M7596 6528 c-10 -39 -7 -248 4 -248 6 0 10 52 10 135 0 74 -2 135 -4
135 -2 0 -6 -10 -10 -22z"/>
<path d="M1591 6519 c-1 -29 36 -219 44 -227 10 -10 4 35 -19 143 -13 61 -24
98 -25 84z"/>
<path d="M1180 6296 c0 -2 8 -10 18 -17 15 -13 16 -12 3 4 -13 16 -21 21 -21
13z"/>
<path d="M1230 6230 c12 -16 24 -30 26 -30 3 0 -4 14 -16 30 -12 17 -24 30
-26 30 -3 0 4 -13 16 -30z"/>
<path d="M1271 6173 c7 -12 15 -20 18 -17 3 2 -3 12 -13 22 -17 16 -18 16 -5
-5z"/>
<path d="M1771 6130 c-57 -32 -108 -65 -112 -72 -5 -7 -6 -69 -2 -138 7 -145
20 -142 -113 -23 -45 40 -88 73 -95 73 -25 0 -224 -73 -239 -88 -13 -13 -13
-14 0 -10 8 3 67 22 132 43 l116 39 89 -80 c48 -43 97 -87 109 -97 l21 -17 -5
144 -5 144 109 60 c142 79 144 81 119 81 -11 0 -67 -26 -124 -59z"/>
<path d="M7695 6103 c-60 -19 -116 -40 -122 -47 -7 -6 -23 -61 -34 -121 -12
-61 -25 -113 -28 -117 -4 -5 -40 37 -81 93 l-75 101 -90 -7 c-49 -4 -111 -11
-137 -17 -91 -19 -56 -24 75 -11 73 7 137 11 144 9 6 -3 46 -51 89 -108 42
-57 80 -107 84 -111 4 -4 20 55 35 132 l28 140 138 46 c77 26 139 49 139 51 0
12 -67 -1 -165 -33z"/>
<path d="M5056 5877 c-26 -175 -160 -486 -386 -902 -165 -303 -210 -394 -210
-426 0 -44 19 -32 39 26 10 28 53 113 95 189 216 388 363 698 430 905 48 147
59 201 48 231 -8 22 -10 19 -16 -23z"/>
<path d="M6860 5850 c6 -11 13 -20 16 -20 2 0 0 9 -6 20 -6 11 -13 20 -16 20
-2 0 0 -9 6 -20z"/>
<path d="M5878 5823 c7 -3 16 -2 19 1 4 3 -2 6 -13 5 -11 0 -14 -3 -6 -6z"/>
<path d="M6084 5805 c15 -11 16 -15 5 -16 -17 -1 40 -28 60 -29 8 0 -5 14 -27
30 -41 30 -75 43 -38 15z"/>
<path d="M6933 5714 c95 -190 173 -404 222 -608 84 -347 98 -764 39 -1126
-143 -873 -725 -1650 -1529 -2040 -393 -191 -783 -280 -1225 -280 -485 0 -900
105 -1335 339 -254 136 -442 278 -665 500 -80 80 -134 132 -120 115 471 -544
1053 -868 1750 -975 209 -33 591 -33 799 0 608 94 1133 356 1562 781 382 378
627 808 754 1323 161 653 77 1374 -227 1947 -65 124 -83 141 -25 24z"/>
<path d="M1151 5695 c0 -5 22 -53 49 -105 27 -52 49 -90 49 -85 0 6 -22 53
-49 105 -27 52 -49 91 -49 85z"/>
<path d="M8038 5653 c-23 -27 -84 -241 -71 -254 6 -6 23 36 50 131 22 77 39
140 38 140 -1 0 -9 -8 -17 -17z"/>
<path d="M5324 5598 l-19 -23 23 19 c21 18 27 26 19 26 -2 0 -12 -10 -23 -22z"/>
<path d="M1505 5451 c-16 -10 -63 -53 -104 -94 l-74 -76 36 -124 c21 -68 37
-127 37 -131 0 -3 -54 21 -120 54 -105 53 -123 59 -143 49 -56 -30 -195 -129
-201 -144 -7 -19 -11 -22 121 67 l103 68 130 -65 c71 -36 130 -62 130 -58 0 5
-16 68 -37 142 l-38 134 104 99 c102 96 117 117 56 79z"/>
<path d="M854 5340 c85 -70 116 -90 116 -76 0 5 -134 115 -169 138 -62 43 -36
11 53 -62z"/>
<path d="M6507 5350 c3 -25 5 -113 5 -197 0 -129 2 -152 15 -157 14 -6 15 11
10 151 -3 103 -11 174 -21 203 l-15 45 6 -45z"/>
<path d="M7400 5242 c0 -4 55 -17 123 -28 67 -12 130 -25 141 -29 16 -7 17 -5
8 11 -8 16 -33 23 -119 37 -119 19 -153 21 -153 9z"/>
<path d="M7988 5211 c-53 -3 -102 -11 -107 -16 -6 -6 -33 -56 -60 -112 -27
-55 -53 -102 -58 -104 -5 -2 -6 -15 -3 -29 6 -21 16 -7 70 101 l63 126 66 7
c36 3 94 6 128 6 67 0 96 7 87 21 -5 9 -28 9 -186 0z"/>
<path d="M3410 5159 c105 -92 451 -323 770 -514 63 -38 130 -82 149 -97 19
-15 37 -25 40 -23 9 10 -56 68 -124 109 -471 287 -646 400 -785 506 -89 68
-117 79 -50 19z"/>
<path d="M3313 4955 c0 -9 6 -14 13 -11 7 3 14 2 16 -3 2 -4 48 -27 103 -50
55 -24 123 -55 150 -68 28 -14 46 -21 40 -15 -5 6 -66 38 -135 72 -69 34 -137
68 -152 76 -33 18 -35 18 -35 -1z"/>
<path d="M3660 4795 c0 -2 18 -14 40 -25 22 -11 40 -18 40 -15 0 2 -18 14 -40
25 -22 11 -40 18 -40 15z"/>
<path d="M4740 4770 c-6 -11 -8 -20 -6 -20 3 0 10 9 16 20 6 11 8 20 6 20 -3
0 -10 -9 -16 -20z"/>
<path d="M8224 4682 c-22 -19 -134 -201 -134 -219 0 -13 60 -113 67 -113 3 0
-7 20 -21 44 -14 25 -26 50 -26 56 0 10 84 160 128 228 17 26 14 27 -14 4z"/>
<path d="M1356 4671 c-37 -41 -127 -205 -120 -220 5 -14 7 -14 11 -1 3 8 35
64 70 123 62 103 76 139 39 98z"/>
<path d="M3861 4686 c10 -9 69 -36 69 -32 0 6 -55 36 -66 36 -4 0 -5 -2 -3 -4z"/>
<path d="M6695 4536 c0 -139 -2 -157 -27 -224 -40 -110 -84 -177 -178 -273
-168 -170 -334 -234 -543 -208 -228 28 -527 150 -1002 409 -380 207 -415 222
-445 184 -11 -12 -10 -18 4 -32 16 -16 17 -16 10 2 -7 17 -4 18 32 12 49 -10
79 -25 341 -169 514 -283 772 -392 1029 -433 88 -15 119 -16 188 -6 349 46
648 395 623 726 -4 45 -12 100 -19 122 -12 38 -13 28 -13 -110z"/>
<path d="M4650 4620 c-6 -11 -8 -20 -6 -20 3 0 10 9 16 20 6 11 8 20 6 20 -3
0 -10 -9 -16 -20z"/>
<path d="M3971 4627 c15 -12 139 -77 139 -73 0 6 -124 76 -135 76 -5 0 -6 -1
-4 -3z"/>
<path d="M4160 4527 c0 -6 110 -71 143 -85 34 -14 59 -15 35 -1 -9 5 -15 16
-12 23 5 14 -23 26 -64 26 -12 0 -41 9 -62 20 -22 11 -40 19 -40 17z"/>
<path d="M4564 4498 l-29 -33 33 29 c17 17 32 31 32 33 0 8 -8 1 -36 -29z"/>
<path d="M4480 4475 c0 -8 4 -15 10 -15 5 0 7 7 4 15 -4 8 -8 15 -10 15 -2 0
-4 -7 -4 -15z"/>
<path d="M4415 4470 c4 -6 1 -18 -7 -27 -11 -14 -11 -16 2 -11 18 5 27 48 10
48 -6 0 -8 -5 -5 -10z"/>
<path d="M745 4395 c99 -48 165 -70 140 -46 -17 15 -216 101 -233 100 -9 0 33
-25 93 -54z"/>
<path d="M7560 4418 c149 -70 190 -87 190 -77 0 14 -205 109 -233 108 -14 0 0
-11 43 -31z"/>
<path d="M4343 4368 c-18 -18 -85 -121 -150 -228 -411 -676 -615 -930 -832
-1040 -111 -55 -263 -73 -411 -46 -125 23 -220 64 -375 162 -37 23 -36 21 14
-25 63 -58 154 -109 266 -147 105 -35 293 -45 399 -20 276 65 518 342 996
1140 45 76 102 159 126 184 24 25 44 47 44 49 0 2 -10 3 -23 3 -13 0 -37 -14
-54 -32z"/>
<path d="M4439 4347 c-8 -7 -18 -21 -22 -31 -6 -16 -5 -17 8 -6 49 40 19 -41
-81 -220 -185 -332 -437 -850 -421 -866 2 -2 21 40 42 94 43 109 231 482 384
762 95 175 117 228 109 263 -2 13 -6 13 -19 4z"/>
<path d="M8200 4270 c6 -11 13 -20 16 -20 2 0 0 9 -6 20 -6 11 -13 20 -16 20
-2 0 0 -9 6 -20z"/>
<path d="M1014 4189 c-76 -87 -113 -140 -97 -138 4 0 33 29 63 65 30 35 71 82
90 104 l35 41 140 -30 c133 -28 160 -31 139 -12 -8 7 -257 61 -282 61 -5 0
-45 -41 -88 -91z"/>
<path d="M7881 4200 c-77 -88 -106 -128 -99 -136 3 -2 45 41 93 96 49 55 93
100 99 100 6 0 70 -13 143 -29 125 -27 132 -27 122 -10 -5 11 -14 17 -18 15
-4 -3 -60 6 -125 19 -64 14 -122 25 -130 25 -8 0 -46 -36 -85 -80z"/>
<path d="M4601 4266 c2 -2 74 -46 159 -98 85 -52 204 -125 264 -162 59 -37
105 -63 102 -57 -16 25 -493 321 -518 321 -6 0 -9 -2 -7 -4z"/>
<path d="M5140 3936 c0 -3 9 -10 20 -16 11 -6 20 -8 20 -6 0 3 -9 10 -20 16
-11 6 -20 8 -20 6z"/>
<path d="M7771 3935 c0 -5 13 -35 29 -65 16 -30 29 -50 29 -45 0 6 -13 35 -29
65 -16 30 -29 51 -29 45z"/>
<path d="M1411 3876 c-13 -16 -71 -211 -71 -238 0 -35 17 -17 28 30 6 26 23
86 36 135 14 48 23 87 22 87 -2 0 -9 -6 -15 -14z"/>
<path d="M2397 3844 c-4 -4 -7 -17 -7 -28 1 -19 1 -20 11 -3 11 19 8 43 -4 31z"/>
<path d="M7850 3761 c0 -6 4 -13 10 -16 6 -3 7 1 4 9 -7 18 -14 21 -14 7z"/>
<path d="M8113 3658 c-82 -68 -153 -143 -153 -160 0 -10 14 -66 30 -125 17
-58 30 -110 30 -115 0 -4 -49 17 -110 47 -60 30 -117 55 -125 55 -22 0 -203
-123 -223 -151 -19 -27 -22 -29 115 63 56 37 107 68 113 68 6 0 65 -27 131
-61 67 -33 122 -59 124 -57 1 2 -15 64 -37 138 l-39 135 103 97 c57 54 98 98
91 98 -7 0 -29 -14 -50 -32z"/>
<path d="M7400 3636 c0 -2 37 -35 83 -72 114 -93 111 -91 106 -77 -2 7 -42 44
-89 83 -76 63 -100 79 -100 66z"/>
<path d="M771 3466 c11 -12 270 -53 266 -42 -2 6 -30 17 -63 23 -72 15 -211
28 -203 19z"/>
<path d="M1355 3433 c-106 -6 -101 -1 -166 -139 -33 -69 -56 -130 -53 -136 4
-6 34 45 66 113 32 68 64 127 71 131 7 4 39 8 73 8 98 0 214 12 208 21 -5 9
-66 9 -199 2z"/>
<path d="M5858 3170 c11 -301 -114 -574 -318 -693 -109 -63 -317 -104 -464
-90 l-66 6 -84 -52 c-158 -97 -291 -141 -427 -141 -142 0 -258 40 -408 141
-84 58 -69 32 22 -37 71 -53 162 -98 243 -119 78 -21 214 -20 300 1 82 20 211
78 290 130 l58 38 140 2 c339 3 530 114 657 379 61 127 74 189 73 350 -1 77
-5 154 -11 170 -7 22 -8 -2 -5 -85z"/>
<path d="M1656 3104 c-10 -27 -7 -254 4 -254 6 0 10 52 10 135 0 74 -2 135 -4
135 -2 0 -7 -7 -10 -16z"/>
<path d="M3868 3068 l-16 -53 -2 40 -2 40 -13 -40 c-15 -44 -17 -126 -5 -165
6 -23 8 -22 14 15 4 22 16 78 27 124 22 95 20 118 -3 39z"/>
<path d="M7531 3080 c0 -38 33 -207 43 -217 11 -11 6 30 -18 142 -14 65 -24
96 -25 75z"/>
<path d="M7141 2843 c22 -32 53 -75 67 -96 14 -20 27 -35 30 -32 3 3 -7 22
-22 42 -15 21 -44 62 -64 90 -20 29 -41 53 -45 53 -4 0 11 -26 34 -57z"/>
<path d="M7716 2705 c-54 -30 -105 -60 -112 -66 -11 -9 -14 -43 -14 -136 l0
-125 -90 81 c-50 45 -98 81 -108 81 -32 0 -230 -71 -244 -87 -11 -14 -11 -16
2 -11 8 3 67 22 131 43 l117 39 103 -92 104 -92 3 140 3 139 102 57 c56 32
111 63 122 71 19 13 19 13 0 13 -11 0 -64 -25 -119 -55z"/>
<path d="M2235 2720 c10 -11 20 -20 23 -20 3 0 -3 9 -13 20 -10 11 -20 20 -23
20 -3 0 3 -9 13 -20z"/>
<path d="M1741 2669 c-63 -21 -115 -40 -117 -42 -2 -2 -13 -48 -24 -103 -11
-54 -22 -110 -25 -122 -5 -21 -15 -12 -82 77 -72 95 -79 101 -112 101 -64 0
-213 -20 -230 -31 -16 -10 -3 -10 197 7 l67 5 80 -110 c44 -61 83 -110 86
-111 3 0 16 57 29 126 13 69 29 131 34 139 6 7 68 32 139 55 70 23 127 44 127
46 0 13 -69 -2 -169 -37z"/>
<path d="M2275 2670 c10 -11 20 -20 23 -20 3 0 -3 9 -13 20 -10 11 -20 20 -23
20 -3 0 3 -9 13 -20z"/>
<path d="M2108 2439 c-7 -18 39 -218 53 -233 15 -17 9 25 -19 139 -16 62 -31
103 -34 94z"/>
<path d="M7065 2333 c-12 -31 -19 -249 -7 -238 9 10 28 255 19 255 -3 0 -8 -8
-12 -17z"/>
<path d="M1756 2130 c67 -87 94 -114 94 -95 0 11 -153 195 -162 195 -5 0 26
-45 68 -100z"/>
<path d="M2306 2049 l-109 -70 7 -132 c7 -125 6 -130 -11 -116 -98 83 -175
139 -192 139 -48 0 -262 -92 -248 -106 2 -2 56 17 121 41 65 25 123 45 128 45
6 0 60 -39 120 -86 l110 -85 -7 143 -7 143 119 77 c71 47 110 78 97 78 -11 0
-69 -32 -128 -71z"/>
<path d="M7133 1912 c-56 -15 -107 -32 -113 -38 -7 -6 -24 -62 -40 -124 -15
-61 -30 -114 -33 -117 -5 -4 -36 40 -103 149 -14 24 -32 48 -39 53 -16 13
-238 0 -263 -15 -12 -7 25 -9 123 -7 l140 2 74 -113 c47 -71 77 -108 81 -100
4 7 20 65 35 128 15 63 33 120 39 126 6 6 63 24 126 39 63 15 122 32 130 36
32 18 -57 7 -157 -19z"/>
<path d="M2710 1906 c0 -11 30 -66 36 -66 2 0 -3 15 -12 33 -19 36 -24 44 -24
33z"/>
<path d="M2770 1790 c11 -22 23 -40 25 -40 3 0 -4 18 -15 40 -11 22 -23 40
-25 40 -3 0 4 -18 15 -40z"/>
<path d="M2810 1720 c6 -11 13 -20 16 -20 2 0 0 9 -6 20 -6 11 -13 20 -16 20
-2 0 0 -9 6 -20z"/>
<path d="M6417 1708 c-23 -36 -79 -216 -72 -228 4 -6 27 46 51 116 43 126 50
158 21 112z"/>
<path d="M3052 1633 c-24 -27 -65 -72 -89 -101 l-46 -52 42 -116 c22 -64 41
-120 41 -124 0 -5 -51 14 -114 41 -63 27 -120 49 -126 49 -20 0 -208 -138
-221 -162 -12 -22 -13 -23 155 99 32 24 64 43 70 43 7 0 65 -23 130 -51 65
-28 119 -49 122 -47 2 2 -15 61 -38 130 l-42 125 20 26 c10 14 52 62 93 106
40 45 67 81 60 81 -7 0 -33 -21 -57 -47z"/>
<path d="M2446 1515 c94 -71 123 -88 109 -65 -12 20 -178 140 -193 140 -9 0
29 -34 84 -75z"/>
<path d="M3848 1403 c-24 -27 -108 -200 -108 -222 0 -10 8 -25 17 -32 15 -13
15 -12 6 6 -9 16 -1 40 49 138 58 116 67 145 36 110z"/>
<path d="M4441 1378 c-1 -7 71 -174 90 -210 6 -11 13 -18 15 -15 3 2 -20 55
-50 118 -30 63 -55 111 -55 107z"/>
<path d="M5330 1366 c0 -2 8 -10 18 -17 15 -13 16 -12 3 4 -13 16 -21 21 -21
13z"/>
<path d="M5780 1352 c0 -4 59 -19 130 -33 72 -14 130 -22 130 -18 0 10 -16 15
-134 39 -108 22 -126 24 -126 12z"/>
<path d="M5662 1313 c-13 -5 -127 -169 -139 -199 -3 -8 22 -69 57 -136 37 -72
57 -119 48 -115 -9 3 -68 20 -132 38 l-117 33 -85 -85 c-47 -46 -92 -97 -101
-114 -9 -19 23 8 90 74 l105 103 129 -36 c72 -20 133 -36 137 -36 3 0 -23 57
-58 128 l-63 127 64 95 c63 94 86 131 81 129 -2 0 -9 -3 -16 -6z"/>
<path d="M6254 1282 c-19 -11 -134 -225 -134 -247 0 -11 32 37 71 108 l70 127
142 1 c87 1 132 4 117 9 -32 10 -251 12 -266 2z"/>
<path d="M3160 1142 c0 -10 239 -106 246 -99 7 7 -16 19 -112 58 -96 38 -134
50 -134 41z"/>
<path d="M5043 1059 c66 -33 124 -58 130 -56 15 5 -207 117 -230 116 -10 0 35
-27 100 -60z"/>
<path d="M4800 1103 c-23 -9 -185 -155 -188 -170 -2 -7 8 -65 22 -130 14 -64
25 -118 23 -119 -1 -2 -51 26 -111 61 -68 40 -114 61 -124 57 -42 -15 -213
-125 -222 -142 -6 -12 37 9 114 55 l124 73 117 -70 c64 -38 119 -68 122 -65 3
3 -8 65 -23 138 l-28 132 40 36 c21 20 68 62 104 93 60 53 67 65 30 51z"/>
<path d="M4120 1039 c84 -78 129 -113 136 -106 7 7 -175 167 -190 167 -6 -1
18 -28 54 -61z"/>
<path d="M3549 923 c-88 -106 -112 -139 -108 -151 2 -6 44 38 93 99 85 103 91
109 120 104 85 -15 241 -33 245 -29 3 2 -3 12 -14 22 -10 9 -14 11 -10 3 5
-10 2 -12 -11 -8 -11 4 -57 11 -104 17 -47 6 -99 13 -115 16 -28 5 -36 -1 -96
-73z"/>
<path d="M8614 5624 c-9 -4 -6 -25 7 -77 284 -1086 127 -2263 -432 -3237 -287
-500 -689 -957 -1145 -1301 -965 -730 -2196 -1022 -3383 -804 -393 73 -733
183 -1089 355 -460 223 -817 475 -1178 835 -296 295 -525 591 -709 918 -54 96
-85 130 -85 94 0 -23 137 -254 241 -408 339 -500 772 -916 1304 -1252 160
-101 501 -273 685 -345 1123 -443 2356 -407 3455 101 122 56 152 72 310 160
751 422 1386 1102 1770 1894 397 819 524 1752 364 2663 -24 139 -89 410 -98
409 -3 0 -11 -3 -17 -5z"/>
</g>
</svg>
